<svg width="32" height="32" viewBox="0 0 32 32" fill="none" xmlns="http://www.w3.org/2000/svg">
  <!-- Background circle with gradient -->
  <defs>
    <linearGradient id="bgGradient" x1="0%" y1="0%" x2="100%" y2="100%">
      <stop offset="0%" style="stop-color:#3B82F6;stop-opacity:1" />
      <stop offset="50%" style="stop-color:#8B5CF6;stop-opacity:1" />
      <stop offset="100%" style="stop-color:#06B6D4;stop-opacity:1" />
    </linearGradient>
    <linearGradient id="sparkGradient" x1="0%" y1="0%" x2="100%" y2="100%">
      <stop offset="0%" style="stop-color:#FCD34D;stop-opacity:1" />
      <stop offset="50%" style="stop-color:#F59E0B;stop-opacity:1" />
      <stop offset="100%" style="stop-color:#EF4444;stop-opacity:1" />
    </linearGradient>
  </defs>
  
  <!-- Background circle -->
  <circle cx="16" cy="16" r="15" fill="url(#bgGradient)" stroke="#1E293B" stroke-width="2"/>
  
  <!-- Atom symbol (representing science) -->
  <circle cx="16" cy="16" r="3" fill="white" opacity="0.9"/>
  
  <!-- Electron orbits -->
  <ellipse cx="16" cy="16" rx="8" ry="6" fill="none" stroke="white" stroke-width="1.5" opacity="0.7" transform="rotate(45 16 16)"/>
  <ellipse cx="16" cy="16" rx="6" ry="8" fill="none" stroke="white" stroke-width="1.5" opacity="0.7" transform="rotate(-15 16 16)"/>
  
  <!-- Electrons -->
  <circle cx="24" cy="16" r="1.5" fill="url(#sparkGradient)"/>
  <circle cx="16" cy="24" r="1.5" fill="url(#sparkGradient)"/>
  <circle cx="8" cy="16" r="1.5" fill="url(#sparkGradient)"/>
  <circle cx="16" cy="8" r="1.5" fill="url(#sparkGradient)"/>
  
  <!-- Spark effect -->
  <path d="M16 4 L18 8 L16 12 L14 8 Z" fill="url(#sparkGradient)" opacity="0.8"/>
  <path d="M28 16 L24 18 L20 16 L24 14 Z" fill="url(#sparkGradient)" opacity="0.8"/>
  <path d="M16 28 L18 24 L16 20 L14 24 Z" fill="url(#sparkGradient)" opacity="0.8"/>
  <path d="M4 16 L8 18 L12 16 L8 14 Z" fill="url(#sparkGradient)" opacity="0.8"/>
  
  <!-- Center glow -->
  <circle cx="16" cy="16" r="1" fill="white" opacity="0.6"/>
</svg>




