<svg width="32" height="32" viewBox="0 0 32 32" fill="none" xmlns="http://www.w3.org/2000/svg">
  <!-- Background circle with gradient -->
  <defs>
    <linearGradient id="bgGradient" x1="0%" y1="0%" x2="100%" y2="100%">
      <stop offset="0%" style="stop-color:#3B82F6;stop-opacity:1" />
      <stop offset="100%" style="stop-color:#8B5CF6;stop-opacity:1" />
    </linearGradient>
  </defs>
  
  <!-- Background circle -->
  <circle cx="16" cy="16" r="15" fill="url(#bgGradient)" stroke="#1E293B" stroke-width="2"/>
  
  <!-- Letter S for SkillSpark -->
  <path d="M12 10 C12 10 16 10 18 10 C20 10 22 12 22 14 C22 16 20 18 18 18 C16 18 12 18 12 18 C12 18 12 20 12 20 C12 20 16 20 18 20 C20 20 22 22 22 24 C22 26 20 28 18 28 C16 28 12 28 12 28" 
        stroke="white" stroke-width="3" stroke-linecap="round" fill="none"/>
  
  <!-- Spark effect -->
  <path d="M8 8 L10 10 L8 12 L6 10 Z" fill="#FCD34D"/>
  <path d="M24 8 L26 10 L24 12 L22 10 Z" fill="#FCD34D"/>
  <path d="M8 24 L10 26 L8 28 L6 26 Z" fill="#FCD34D"/>
  <path d="M24 24 L26 26 L24 28 L22 26 Z" fill="#FCD34D"/>
</svg>











