<svg width="32" height="32" viewBox="0 0 32 32" fill="none" xmlns="http://www.w3.org/2000/svg">
  <!-- Background circle with bright gradient -->
  <defs>
    <linearGradient id="bgGradient" x1="0%" y1="0%" x2="100%" y2="100%">
      <stop offset="0%" style="stop-color:#EF4444;stop-opacity:1" />
      <stop offset="50%" style="stop-color:#F59E0B;stop-opacity:1" />
      <stop offset="100%" style="stop-color:#3B82F6;stop-opacity:1" />
    </linearGradient>
    <radialGradient id="centerGlow" cx="50%" cy="50%" r="50%">
      <stop offset="0%" style="stop-color:#FFFFFF;stop-opacity:0.8" />
      <stop offset="100%" style="stop-color:#FFFFFF;stop-opacity:0" />
    </radialGradient>
  </defs>
  
  <!-- Background circle -->
  <circle cx="16" cy="16" r="15" fill="url(#bgGradient)" stroke="#000000" stroke-width="1"/>
  
  <!-- Center glow effect -->
  <circle cx="16" cy="16" r="8" fill="url(#centerGlow)"/>
  
  <!-- Large letter S for SkillSpark -->
  <path d="M10 8 C10 8 14 8 16 8 C18 8 20 10 20 12 C20 14 18 16 16 16 C14 16 10 16 10 16 C10 16 10 18 10 18 C10 18 14 18 16 18 C18 18 20 20 20 22 C20 24 18 26 16 26 C14 26 10 26 10 26" 
        stroke="white" stroke-width="4" stroke-linecap="round" fill="none" stroke-linejoin="round"/>
  
  <!-- Bright spark effects -->
  <path d="M6 6 L8 8 L6 10 L4 8 Z" fill="#FCD34D" stroke="#000000" stroke-width="0.5"/>
  <path d="M26 6 L28 8 L26 10 L24 8 Z" fill="#FCD34D" stroke="#000000" stroke-width="0.5"/>
  <path d="M6 26 L8 28 L6 30 L4 28 Z" fill="#FCD34D" stroke="#000000" stroke-width="0.5"/>
  <path d="M26 26 L28 28 L26 30 L24 28 Z" fill="#FCD34D" stroke="#000000" stroke-width="0.5"/>
  
  <!-- Additional small sparks -->
  <circle cx="8" cy="16" r="1.5" fill="#FCD34D"/>
  <circle cx="24" cy="16" r="1.5" fill="#FCD34D"/>
  <circle cx="16" cy="8" r="1.5" fill="#FCD34D"/>
  <circle cx="16" cy="24" r="1.5" fill="#FCD34D"/>
</svg>











